<svg width="40" height="40" viewBox="0 0 40 40" fill="none" xmlns="http://www.w3.org/2000/svg">
<rect x="0.0847168" y="0.0849609" width="39.8306" height="39.8306" rx="19.9153" fill="url(#paint0_linear_4829_1498)"/>
<path d="M19.8721 29.2535C18.4117 29.2535 17.1142 29.003 15.9796 28.5021C14.8511 27.9952 13.9639 27.2981 13.3182 26.411C12.6725 25.5239 12.3466 24.504 12.3405 23.3513H17.4099C17.4159 23.7074 17.5245 24.0272 17.7358 24.3109C17.953 24.5885 18.2487 24.8057 18.6229 24.9626C18.9971 25.1195 19.4255 25.198 19.9083 25.198C20.373 25.198 20.7834 25.1165 21.1395 24.9536C21.4955 24.7846 21.7731 24.5523 21.9723 24.2565C22.1714 23.9608 22.268 23.6229 22.262 23.2427C22.268 22.8685 22.1533 22.5366 21.918 22.2469C21.6887 21.9572 21.3658 21.7309 20.9494 21.568C20.533 21.405 20.0532 21.3236 19.51 21.3236H17.6271V17.8474H19.51C20.0109 17.8474 20.4515 17.766 20.8317 17.603C21.2179 17.4401 21.5167 17.2138 21.7279 16.9241C21.9451 16.6344 22.0507 16.3025 22.0447 15.9283C22.0507 15.5662 21.9632 15.2464 21.7822 14.9688C21.6011 14.6912 21.3477 14.4739 21.0218 14.317C20.7019 14.1601 20.3308 14.0816 19.9083 14.0816C19.4497 14.0816 19.0393 14.1631 18.6772 14.3261C18.3212 14.489 18.0405 14.7153 17.8353 15.005C17.6302 15.2947 17.5245 15.6266 17.5185 16.0008H12.7026C12.7087 14.8662 13.0195 13.8644 13.635 12.9954C14.2566 12.1263 15.1076 11.4444 16.1878 10.9495C17.2681 10.4546 18.5082 10.2072 19.9083 10.2072C21.2783 10.2072 22.4883 10.4396 23.5384 10.9042C24.5945 11.3689 25.4182 12.0086 26.0097 12.8234C26.6071 13.632 26.9028 14.5584 26.8968 15.6024C26.9089 16.6405 26.5528 17.4914 25.8286 18.1552C25.1105 18.8191 24.1992 19.2113 23.0948 19.332V19.4769C24.5915 19.6398 25.717 20.0985 26.4713 20.8528C27.2257 21.6012 27.5969 22.5426 27.5848 23.6772C27.5908 24.7635 27.2649 25.726 26.6071 26.5649C25.9553 27.4038 25.0471 28.0616 23.8823 28.5383C22.7236 29.0151 21.3869 29.2535 19.8721 29.2535Z" fill="white"/>
<defs>
<linearGradient id="paint0_linear_4829_1498" x1="0.69921" y1="24.4275" x2="39.0643" y2="24.4275" gradientUnits="userSpaceOnUse">
<stop stop-color="#E6793B"/>
<stop offset="1" stop-color="#FF4185"/>
</linearGradient>
</defs>
</svg>
